<svg width="273" height="43" viewBox="0 0 273 43" fill="none" xmlns="http://www.w3.org/2000/svg">
<path d="M64.2784 8.36364H66.4091L70.1136 17.4091H70.25L73.9545 8.36364H76.0852V20H74.4148V11.5795H74.3068L70.875 19.983H69.4886L66.0568 11.5739H65.9489V20H64.2784V8.36364ZM80.3935 8.36364V20H78.6378V8.36364H80.3935ZM92.3423 8.36364V20H90.7287L84.8139 11.4659H84.706V20H82.9503V8.36364H84.5753L90.4957 16.9091H90.6037V8.36364H92.3423ZM96.6591 8.36364V20H94.9034V8.36364H96.6591ZM105.562 11.4205C105.502 10.8826 105.252 10.4659 104.812 10.1705C104.373 9.87121 103.82 9.72159 103.153 9.72159C102.676 9.72159 102.263 9.79735 101.915 9.94886C101.566 10.0966 101.295 10.3011 101.102 10.5625C100.913 10.8201 100.818 11.1136 100.818 11.4432C100.818 11.7197 100.883 11.9583 101.011 12.1591C101.144 12.3598 101.316 12.5284 101.528 12.6648C101.744 12.7973 101.975 12.9091 102.222 13C102.468 13.0871 102.705 13.1591 102.932 13.2159L104.068 13.5114C104.439 13.6023 104.82 13.7254 105.21 13.8807C105.6 14.036 105.962 14.2405 106.295 14.4943C106.629 14.7481 106.898 15.0625 107.102 15.4375C107.311 15.8125 107.415 16.2614 107.415 16.7841C107.415 17.4432 107.244 18.0284 106.903 18.5398C106.566 19.0511 106.076 19.4545 105.432 19.75C104.792 20.0455 104.017 20.1932 103.108 20.1932C102.237 20.1932 101.483 20.0549 100.847 19.7784C100.21 19.5019 99.7121 19.1098 99.3523 18.6023C98.9924 18.0909 98.7936 17.4848 98.7557 16.7841H100.517C100.551 17.2045 100.688 17.5549 100.926 17.8352C101.169 18.1117 101.477 18.3182 101.852 18.4545C102.231 18.5871 102.646 18.6534 103.097 18.6534C103.593 18.6534 104.034 18.5758 104.42 18.4205C104.811 18.2614 105.117 18.0417 105.341 17.7614C105.564 17.4773 105.676 17.1458 105.676 16.767C105.676 16.4223 105.578 16.1402 105.381 15.9205C105.188 15.7008 104.924 15.5189 104.591 15.375C104.261 15.2311 103.888 15.1042 103.472 14.9943L102.097 14.6193C101.165 14.3655 100.426 13.9924 99.8807 13.5C99.339 13.0076 99.0682 12.3561 99.0682 11.5455C99.0682 10.875 99.25 10.2898 99.6136 9.78977C99.9773 9.28977 100.47 8.90151 101.091 8.625C101.712 8.3447 102.413 8.20455 103.193 8.20455C103.981 8.20455 104.676 8.3428 105.278 8.61932C105.884 8.89583 106.362 9.27652 106.71 9.76136C107.059 10.2424 107.241 10.7955 107.256 11.4205H105.562ZM108.939 9.875V8.36364H117.945V9.875H114.314V20H112.564V9.875H108.939ZM119.935 20V8.36364H127.23V9.875H121.69V13.4205H126.849V14.9261H121.69V18.4886H127.298V20H119.935ZM129.575 20V8.36364H133.723C134.625 8.36364 135.373 8.51894 135.967 8.82955C136.566 9.14015 137.013 9.57008 137.308 10.1193C137.604 10.6648 137.751 11.2955 137.751 12.0114C137.751 12.7235 137.602 13.3504 137.303 13.892C137.007 14.4299 136.56 14.8485 135.962 15.1477C135.367 15.447 134.619 15.5966 133.717 15.5966H130.575V14.0852H133.558C134.126 14.0852 134.589 14.0038 134.945 13.8409C135.304 13.678 135.568 13.4413 135.734 13.1307C135.901 12.8201 135.984 12.447 135.984 12.0114C135.984 11.572 135.899 11.1913 135.729 10.8693C135.562 10.5473 135.299 10.3011 134.939 10.1307C134.583 9.95644 134.115 9.86932 133.536 9.86932H131.331V20H129.575ZM135.32 14.75L138.195 20H136.195L133.376 14.75H135.32ZM141.643 8.36364V20H139.888V8.36364H141.643ZM154.308 14.1818C154.308 15.4242 154.081 16.4924 153.626 17.3864C153.172 18.2765 152.549 18.9621 151.757 19.4432C150.969 19.9205 150.073 20.1591 149.07 20.1591C148.062 20.1591 147.162 19.9205 146.371 19.4432C145.583 18.9621 144.962 18.2746 144.507 17.3807C144.053 16.4867 143.825 15.4205 143.825 14.1818C143.825 12.9394 144.053 11.8731 144.507 10.983C144.962 10.089 145.583 9.40341 146.371 8.92614C147.162 8.44508 148.062 8.20455 149.07 8.20455C150.073 8.20455 150.969 8.44508 151.757 8.92614C152.549 9.40341 153.172 10.089 153.626 10.983C154.081 11.8731 154.308 12.9394 154.308 14.1818ZM152.57 14.1818C152.57 13.2348 152.416 12.4375 152.109 11.7898C151.806 11.1383 151.39 10.6458 150.859 10.3125C150.333 9.97538 149.736 9.80682 149.07 9.80682C148.399 9.80682 147.801 9.97538 147.274 10.3125C146.748 10.6458 146.331 11.1383 146.024 11.7898C145.721 12.4375 145.57 13.2348 145.57 14.1818C145.57 15.1288 145.721 15.928 146.024 16.5795C146.331 17.2273 146.748 17.7197 147.274 18.0568C147.801 18.3902 148.399 18.5568 149.07 18.5568C149.736 18.5568 150.333 18.3902 150.859 18.0568C151.39 17.7197 151.806 17.2273 152.109 16.5795C152.416 15.928 152.57 15.1288 152.57 14.1818ZM164.499 20H160.732V8.36364H164.618C165.758 8.36364 166.737 8.59659 167.555 9.0625C168.374 9.52462 169 10.1894 169.436 11.0568C169.875 11.9205 170.095 12.9564 170.095 14.1648C170.095 15.3769 169.874 16.4186 169.43 17.2898C168.991 18.161 168.355 18.8314 167.521 19.3011C166.688 19.767 165.68 20 164.499 20ZM162.487 18.4659H164.402C165.288 18.4659 166.025 18.2992 166.612 17.9659C167.199 17.6288 167.639 17.142 167.93 16.5057C168.222 15.8655 168.368 15.0852 168.368 14.1648C168.368 13.2519 168.222 12.4773 167.93 11.8409C167.643 11.2045 167.213 10.7216 166.641 10.392C166.069 10.0625 165.358 9.89773 164.51 9.89773H162.487V18.4659ZM172.278 20V8.36364H179.574V9.875H174.034V13.4205H179.193V14.9261H174.034V18.4886H179.642V20H172.278ZM187.909 8.36364V20H186.153V8.36364H187.909ZM199.858 8.36364V20H198.244L192.33 11.4659H192.222V20H190.466V8.36364H192.091L198.011 16.9091H198.119V8.36364H199.858ZM212.084 12.1477H210.311C210.243 11.7689 210.116 11.4356 209.93 11.1477C209.745 10.8598 209.518 10.6155 209.249 10.4148C208.98 10.214 208.679 10.0625 208.345 9.96023C208.016 9.85795 207.665 9.80682 207.294 9.80682C206.624 9.80682 206.023 9.97538 205.493 10.3125C204.966 10.6496 204.55 11.1439 204.243 11.7955C203.94 12.447 203.788 13.2424 203.788 14.1818C203.788 15.1288 203.94 15.928 204.243 16.5795C204.55 17.2311 204.968 17.7235 205.499 18.0568C206.029 18.3902 206.625 18.5568 207.288 18.5568C207.656 18.5568 208.004 18.5076 208.334 18.4091C208.667 18.3068 208.968 18.1572 209.237 17.9602C209.506 17.7633 209.733 17.5227 209.919 17.2386C210.108 16.9508 210.239 16.6212 210.311 16.25L212.084 16.2557C211.989 16.8277 211.805 17.3542 211.533 17.8352C211.264 18.3125 210.917 18.7254 210.493 19.0739C210.072 19.4186 209.591 19.6856 209.05 19.875C208.508 20.0644 207.917 20.1591 207.277 20.1591C206.269 20.1591 205.372 19.9205 204.584 19.4432C203.796 18.9621 203.175 18.2746 202.72 17.3807C202.269 16.4867 202.044 15.4205 202.044 14.1818C202.044 12.9394 202.271 11.8731 202.726 10.983C203.18 10.089 203.802 9.40341 204.589 8.92614C205.377 8.44508 206.273 8.20455 207.277 8.20455C207.894 8.20455 208.47 8.29356 209.004 8.47159C209.542 8.64583 210.025 8.90341 210.453 9.24432C210.881 9.58144 211.235 9.99432 211.516 10.483C211.796 10.9678 211.985 11.5227 212.084 12.1477ZM214.185 20V8.36364H215.94V18.4886H221.213V20H214.185ZM230.699 8.36364H232.46V16.017C232.46 16.8314 232.269 17.553 231.886 18.1818C231.504 18.8068 230.966 19.2992 230.273 19.6591C229.58 20.0152 228.767 20.1932 227.835 20.1932C226.907 20.1932 226.097 20.0152 225.403 19.6591C224.71 19.2992 224.172 18.8068 223.79 18.1818C223.407 17.553 223.216 16.8314 223.216 16.017V8.36364H224.972V15.875C224.972 16.4015 225.087 16.8693 225.318 17.2784C225.553 17.6875 225.884 18.0095 226.312 18.2443C226.741 18.4754 227.248 18.5909 227.835 18.5909C228.426 18.5909 228.936 18.4754 229.364 18.2443C229.795 18.0095 230.125 17.6875 230.352 17.2784C230.583 16.8693 230.699 16.4015 230.699 15.875V8.36364ZM241.359 11.4205C241.299 10.8826 241.049 10.4659 240.609 10.1705C240.17 9.87121 239.617 9.72159 238.95 9.72159C238.473 9.72159 238.06 9.79735 237.712 9.94886C237.363 10.0966 237.092 10.3011 236.899 10.5625C236.71 10.8201 236.615 11.1136 236.615 11.4432C236.615 11.7197 236.679 11.9583 236.808 12.1591C236.941 12.3598 237.113 12.5284 237.325 12.6648C237.541 12.7973 237.772 12.9091 238.018 13C238.265 13.0871 238.501 13.1591 238.729 13.2159L239.865 13.5114C240.236 13.6023 240.617 13.7254 241.007 13.8807C241.397 14.036 241.759 14.2405 242.092 14.4943C242.426 14.7481 242.695 15.0625 242.899 15.4375C243.107 15.8125 243.212 16.2614 243.212 16.7841C243.212 17.4432 243.041 18.0284 242.7 18.5398C242.363 19.0511 241.873 19.4545 241.229 19.75C240.589 20.0455 239.814 20.1932 238.905 20.1932C238.034 20.1932 237.28 20.0549 236.643 19.7784C236.007 19.5019 235.509 19.1098 235.149 18.6023C234.789 18.0909 234.59 17.4848 234.553 16.7841H236.314C236.348 17.2045 236.484 17.5549 236.723 17.8352C236.965 18.1117 237.274 18.3182 237.649 18.4545C238.028 18.5871 238.443 18.6534 238.893 18.6534C239.39 18.6534 239.831 18.5758 240.217 18.4205C240.607 18.2614 240.914 18.0417 241.138 17.7614C241.361 17.4773 241.473 17.1458 241.473 16.767C241.473 16.4223 241.375 16.1402 241.178 15.9205C240.984 15.7008 240.721 15.5189 240.388 15.375C240.058 15.2311 239.685 15.1042 239.268 14.9943L237.893 14.6193C236.962 14.3655 236.223 13.9924 235.678 13.5C235.136 13.0076 234.865 12.3561 234.865 11.5455C234.865 10.875 235.047 10.2898 235.411 9.78977C235.774 9.28977 236.267 8.90151 236.888 8.625C237.509 8.3447 238.21 8.20455 238.99 8.20455C239.778 8.20455 240.473 8.3428 241.075 8.61932C241.681 8.89583 242.159 9.27652 242.507 9.76136C242.856 10.2424 243.037 10.7955 243.053 11.4205H241.359ZM247.065 8.36364V20H245.31V8.36364H247.065ZM259.73 14.1818C259.73 15.4242 259.503 16.4924 259.048 17.3864C258.594 18.2765 257.971 18.9621 257.179 19.4432C256.391 19.9205 255.495 20.1591 254.491 20.1591C253.484 20.1591 252.584 19.9205 251.793 19.4432C251.005 18.9621 250.384 18.2746 249.929 17.3807C249.474 16.4867 249.247 15.4205 249.247 14.1818C249.247 12.9394 249.474 11.8731 249.929 10.983C250.384 10.089 251.005 9.40341 251.793 8.92614C252.584 8.44508 253.484 8.20455 254.491 8.20455C255.495 8.20455 256.391 8.44508 257.179 8.92614C257.971 9.40341 258.594 10.089 259.048 10.983C259.503 11.8731 259.73 12.9394 259.73 14.1818ZM257.991 14.1818C257.991 13.2348 257.838 12.4375 257.531 11.7898C257.228 11.1383 256.812 10.6458 256.281 10.3125C255.755 9.97538 255.158 9.80682 254.491 9.80682C253.821 9.80682 253.223 9.97538 252.696 10.3125C252.17 10.6458 251.753 11.1383 251.446 11.7898C251.143 12.4375 250.991 13.2348 250.991 14.1818C250.991 15.1288 251.143 15.928 251.446 16.5795C251.753 17.2273 252.17 17.7197 252.696 18.0568C253.223 18.3902 253.821 18.5568 254.491 18.5568C255.158 18.5568 255.755 18.3902 256.281 18.0568C256.812 17.7197 257.228 17.2273 257.531 16.5795C257.838 15.928 257.991 15.1288 257.991 14.1818ZM253.787 7.19886L255.116 4.57955H256.906L255.145 7.19886H253.787ZM271.311 8.36364V20H269.697L263.783 11.4659H263.675V20H261.919V8.36364H263.544L269.464 16.9091H269.572V8.36364H271.311ZM64.2784 39V27.3636H71.5739V28.875H66.0341V32.4205H71.1932V33.9261H66.0341V37.4886H71.642V39H64.2784ZM83.5838 31.1477H81.8111C81.7429 30.7689 81.616 30.4356 81.4304 30.1477C81.2448 29.8598 81.0175 29.6155 80.7486 29.4148C80.4796 29.214 80.1785 29.0625 79.8452 28.9602C79.5156 28.858 79.1652 28.8068 78.794 28.8068C78.1236 28.8068 77.5232 28.9754 76.9929 29.3125C76.4664 29.6496 76.0497 30.1439 75.7429 30.7955C75.4399 31.447 75.2884 32.2424 75.2884 33.1818C75.2884 34.1288 75.4399 34.928 75.7429 35.5795C76.0497 36.2311 76.4683 36.7235 76.9986 37.0568C77.5289 37.3902 78.1255 37.5568 78.7884 37.5568C79.1558 37.5568 79.5043 37.5076 79.8338 37.4091C80.1671 37.3068 80.4683 37.1572 80.7372 36.9602C81.0062 36.7633 81.2334 36.5227 81.419 36.2386C81.6084 35.9508 81.7391 35.6212 81.8111 35.25L83.5838 35.2557C83.4891 35.8277 83.3054 36.3542 83.0327 36.8352C82.7637 37.3125 82.4171 37.7254 81.9929 38.0739C81.5724 38.4186 81.0914 38.6856 80.5497 38.875C80.008 39.0644 79.4171 39.1591 78.777 39.1591C77.7694 39.1591 76.8717 38.9205 76.0838 38.4432C75.2959 37.9621 74.6747 37.2746 74.2202 36.3807C73.7694 35.4867 73.544 34.4205 73.544 33.1818C73.544 31.9394 73.7713 30.8731 74.2259 29.983C74.6804 29.089 75.3016 28.4034 76.0895 27.9261C76.8774 27.4451 77.7732 27.2045 78.777 27.2045C79.3944 27.2045 79.9702 27.2936 80.5043 27.4716C81.0421 27.6458 81.5251 27.9034 81.9531 28.2443C82.3812 28.5814 82.7353 28.9943 83.0156 29.483C83.2959 29.9678 83.4853 30.5227 83.5838 31.1477ZM95.7926 33.1818C95.7926 34.4242 95.5653 35.4924 95.1108 36.3864C94.6563 37.2765 94.0331 37.9621 93.2415 38.4432C92.4536 38.9205 91.5578 39.1591 90.554 39.1591C89.5464 39.1591 88.6468 38.9205 87.8551 38.4432C87.0672 37.9621 86.446 37.2746 85.9915 36.3807C85.5369 35.4867 85.3097 34.4205 85.3097 33.1818C85.3097 31.9394 85.5369 30.8731 85.9915 29.983C86.446 29.089 87.0672 28.4034 87.8551 27.9261C88.6468 27.4451 89.5464 27.2045 90.554 27.2045C91.5578 27.2045 92.4536 27.4451 93.2415 27.9261C94.0331 28.4034 94.6563 29.089 95.1108 29.983C95.5653 30.8731 95.7926 31.9394 95.7926 33.1818ZM94.054 33.1818C94.054 32.2348 93.9006 31.4375 93.5938 30.7898C93.2907 30.1383 92.8741 29.6458 92.3438 29.3125C91.8172 28.9754 91.2206 28.8068 90.554 28.8068C89.8835 28.8068 89.285 28.9754 88.7585 29.3125C88.232 29.6458 87.8153 30.1383 87.5085 30.7898C87.2055 31.4375 87.054 32.2348 87.054 33.1818C87.054 34.1288 87.2055 34.928 87.5085 35.5795C87.8153 36.2273 88.232 36.7197 88.7585 37.0568C89.285 37.3902 89.8835 37.5568 90.554 37.5568C91.2206 37.5568 91.8172 37.3902 92.3438 37.0568C92.8741 36.7197 93.2907 36.2273 93.5938 35.5795C93.9006 34.928 94.054 34.1288 94.054 33.1818ZM107.374 27.3636V39H105.76L99.8452 30.4659H99.7372V39H97.9815V27.3636H99.6065L105.527 35.9091H105.635V27.3636H107.374ZM120.043 33.1818C120.043 34.4242 119.815 35.4924 119.361 36.3864C118.906 37.2765 118.283 37.9621 117.491 38.4432C116.704 38.9205 115.808 39.1591 114.804 39.1591C113.796 39.1591 112.897 38.9205 112.105 38.4432C111.317 37.9621 110.696 37.2746 110.241 36.3807C109.787 35.4867 109.56 34.4205 109.56 33.1818C109.56 31.9394 109.787 30.8731 110.241 29.983C110.696 29.089 111.317 28.4034 112.105 27.9261C112.897 27.4451 113.796 27.2045 114.804 27.2045C115.808 27.2045 116.704 27.4451 117.491 27.9261C118.283 28.4034 118.906 29.089 119.361 29.983C119.815 30.8731 120.043 31.9394 120.043 33.1818ZM118.304 33.1818C118.304 32.2348 118.151 31.4375 117.844 30.7898C117.541 30.1383 117.124 29.6458 116.594 29.3125C116.067 28.9754 115.471 28.8068 114.804 28.8068C114.134 28.8068 113.535 28.9754 113.009 29.3125C112.482 29.6458 112.065 30.1383 111.759 30.7898C111.455 31.4375 111.304 32.2348 111.304 33.1818C111.304 34.1288 111.455 34.928 111.759 35.5795C112.065 36.2273 112.482 36.7197 113.009 37.0568C113.535 37.3902 114.134 37.5568 114.804 37.5568C115.471 37.5568 116.067 37.3902 116.594 37.0568C117.124 36.7197 117.541 36.2273 117.844 35.5795C118.151 34.928 118.304 34.1288 118.304 33.1818ZM114.099 26.1989L115.429 23.5795H117.219L115.457 26.1989H114.099ZM122.232 27.3636H124.362L128.067 36.4091H128.203L131.908 27.3636H134.038V39H132.368V30.5795H132.26L128.828 38.983H127.442L124.01 30.5739H123.902V39H122.232V27.3636ZM138.347 27.3636V39H136.591V27.3636H138.347ZM150.568 31.1477H148.795C148.727 30.7689 148.6 30.4356 148.415 30.1477C148.229 29.8598 148.002 29.6155 147.733 29.4148C147.464 29.214 147.163 29.0625 146.83 28.9602C146.5 28.858 146.15 28.8068 145.778 28.8068C145.108 28.8068 144.508 28.9754 143.977 29.3125C143.451 29.6496 143.034 30.1439 142.727 30.7955C142.424 31.447 142.273 32.2424 142.273 33.1818C142.273 34.1288 142.424 34.928 142.727 35.5795C143.034 36.2311 143.453 36.7235 143.983 37.0568C144.513 37.3902 145.11 37.5568 145.773 37.5568C146.14 37.5568 146.489 37.5076 146.818 37.4091C147.152 37.3068 147.453 37.1572 147.722 36.9602C147.991 36.7633 148.218 36.5227 148.403 36.2386C148.593 35.9508 148.723 35.6212 148.795 35.25L150.568 35.2557C150.473 35.8277 150.29 36.3542 150.017 36.8352C149.748 37.3125 149.402 37.7254 148.977 38.0739C148.557 38.4186 148.076 38.6856 147.534 38.875C146.992 39.0644 146.402 39.1591 145.761 39.1591C144.754 39.1591 143.856 38.9205 143.068 38.4432C142.28 37.9621 141.659 37.2746 141.205 36.3807C140.754 35.4867 140.528 34.4205 140.528 33.1818C140.528 31.9394 140.756 30.8731 141.21 29.983C141.665 29.089 142.286 28.4034 143.074 27.9261C143.862 27.4451 144.758 27.2045 145.761 27.2045C146.379 27.2045 146.955 27.2936 147.489 27.4716C148.027 27.6458 148.509 27.9034 148.938 28.2443C149.366 28.5814 149.72 28.9943 150 29.483C150.28 29.9678 150.47 30.5227 150.568 31.1477ZM153.574 39H151.71L155.898 27.3636H157.926L162.114 39H160.25L156.96 29.4773H156.869L153.574 39ZM153.886 34.4432H159.932V35.9205H153.886V34.4432ZM167.131 27.3636H169.125L172.165 32.6534H172.29L175.33 27.3636H177.324L173.102 34.4318V39H171.352V34.4318L167.131 27.3636ZM189.562 30.4205C189.502 29.8826 189.252 29.4659 188.812 29.1705C188.373 28.8712 187.82 28.7216 187.153 28.7216C186.676 28.7216 186.263 28.7973 185.915 28.9489C185.566 29.0966 185.295 29.3011 185.102 29.5625C184.913 29.8201 184.818 30.1136 184.818 30.4432C184.818 30.7197 184.883 30.9583 185.011 31.1591C185.144 31.3598 185.316 31.5284 185.528 31.6648C185.744 31.7973 185.975 31.9091 186.222 32C186.468 32.0871 186.705 32.1591 186.932 32.2159L188.068 32.5114C188.439 32.6023 188.82 32.7254 189.21 32.8807C189.6 33.036 189.962 33.2405 190.295 33.4943C190.629 33.7481 190.898 34.0625 191.102 34.4375C191.311 34.8125 191.415 35.2614 191.415 35.7841C191.415 36.4432 191.244 37.0284 190.903 37.5398C190.566 38.0511 190.076 38.4545 189.432 38.75C188.792 39.0455 188.017 39.1932 187.108 39.1932C186.237 39.1932 185.483 39.0549 184.847 38.7784C184.21 38.5019 183.712 38.1098 183.352 37.6023C182.992 37.0909 182.794 36.4848 182.756 35.7841H184.517C184.551 36.2045 184.688 36.5549 184.926 36.8352C185.169 37.1117 185.477 37.3182 185.852 37.4545C186.231 37.5871 186.646 37.6534 187.097 37.6534C187.593 37.6534 188.034 37.5758 188.42 37.4205C188.811 37.2614 189.117 37.0417 189.341 36.7614C189.564 36.4773 189.676 36.1458 189.676 35.767C189.676 35.4223 189.578 35.1402 189.381 34.9205C189.188 34.7008 188.924 34.5189 188.591 34.375C188.261 34.2311 187.888 34.1042 187.472 33.9943L186.097 33.6193C185.165 33.3655 184.426 32.9924 183.881 32.5C183.339 32.0076 183.068 31.3561 183.068 30.5455C183.068 29.875 183.25 29.2898 183.614 28.7898C183.977 28.2898 184.47 27.9015 185.091 27.625C185.712 27.3447 186.413 27.2045 187.193 27.2045C187.981 27.2045 188.676 27.3428 189.278 27.6193C189.884 27.8958 190.362 28.2765 190.71 28.7614C191.059 29.2424 191.241 29.7955 191.256 30.4205H189.562ZM203.621 33.1818C203.621 34.4242 203.393 35.4924 202.939 36.3864C202.484 37.2765 201.861 37.9621 201.07 38.4432C200.282 38.9205 199.386 39.1591 198.382 39.1591C197.375 39.1591 196.475 38.9205 195.683 38.4432C194.895 37.9621 194.274 37.2746 193.82 36.3807C193.365 35.4867 193.138 34.4205 193.138 33.1818C193.138 31.9394 193.365 30.8731 193.82 29.983C194.274 29.089 194.895 28.4034 195.683 27.9261C196.475 27.4451 197.375 27.2045 198.382 27.2045C199.386 27.2045 200.282 27.4451 201.07 27.9261C201.861 28.4034 202.484 29.089 202.939 29.983C203.393 30.8731 203.621 31.9394 203.621 33.1818ZM201.882 33.1818C201.882 32.2348 201.729 31.4375 201.422 30.7898C201.119 30.1383 200.702 29.6458 200.172 29.3125C199.645 28.9754 199.049 28.8068 198.382 28.8068C197.712 28.8068 197.113 28.9754 196.587 29.3125C196.06 29.6458 195.643 30.1383 195.337 30.7898C195.034 31.4375 194.882 32.2348 194.882 33.1818C194.882 34.1288 195.034 34.928 195.337 35.5795C195.643 36.2273 196.06 36.7197 196.587 37.0568C197.113 37.3902 197.712 37.5568 198.382 37.5568C199.049 37.5568 199.645 37.3902 200.172 37.0568C200.702 36.7197 201.119 36.2273 201.422 35.5795C201.729 34.928 201.882 34.1288 201.882 33.1818ZM215.474 31.1477H213.702C213.634 30.7689 213.507 30.4356 213.321 30.1477C213.135 29.8598 212.908 29.6155 212.639 29.4148C212.37 29.214 212.069 29.0625 211.736 28.9602C211.406 28.858 211.056 28.8068 210.685 28.8068C210.014 28.8068 209.414 28.9754 208.884 29.3125C208.357 29.6496 207.94 30.1439 207.634 30.7955C207.33 31.447 207.179 32.2424 207.179 33.1818C207.179 34.1288 207.33 34.928 207.634 35.5795C207.94 36.2311 208.359 36.7235 208.889 37.0568C209.42 37.3902 210.016 37.5568 210.679 37.5568C211.046 37.5568 211.395 37.5076 211.724 37.4091C212.058 37.3068 212.359 37.1572 212.628 36.9602C212.897 36.7633 213.124 36.5227 213.31 36.2386C213.499 35.9508 213.63 35.6212 213.702 35.25L215.474 35.2557C215.38 35.8277 215.196 36.3542 214.923 36.8352C214.654 37.3125 214.308 37.7254 213.884 38.0739C213.463 38.4186 212.982 38.6856 212.44 38.875C211.899 39.0644 211.308 39.1591 210.668 39.1591C209.66 39.1591 208.762 38.9205 207.974 38.4432C207.187 37.9621 206.565 37.2746 206.111 36.3807C205.66 35.4867 205.435 34.4205 205.435 33.1818C205.435 31.9394 205.662 30.8731 206.116 29.983C206.571 29.089 207.192 28.4034 207.98 27.9261C208.768 27.4451 209.664 27.2045 210.668 27.2045C211.285 27.2045 211.861 27.2936 212.395 27.4716C212.933 27.6458 213.416 27.9034 213.844 28.2443C214.272 28.5814 214.626 28.9943 214.906 29.483C215.187 29.9678 215.376 30.5227 215.474 31.1477ZM219.331 27.3636V39H217.575V27.3636H219.331ZM222.871 39H221.007L225.195 27.3636H227.223L231.411 39H229.547L226.257 29.4773H226.166L222.871 39ZM223.183 34.4432H229.229V35.9205H223.183V34.4432ZM233.091 39V27.3636H234.847V37.4886H240.119V39H233.091Z" fill="black"/>
<path d="M10.7558 11.2327C16.2881 11.2326 18.5011 13.4481 18.5011 13.4481C18.5011 13.4481 9.36348 26.362 25.4074 37.4424C22.4655 39.582 20.8608 40.6518 17.9479 42.2565C12.5999 39.3018 1.57203 31.3981 0.244255 23.4206C-1.41546 13.4487 5.74601 11.2327 10.7558 11.2327Z" fill="black"/>
<path d="M40.0589 11.2327C34.5266 11.2326 32.3136 13.4481 32.3136 13.4481C32.3136 13.4481 41.4512 26.362 25.4073 37.4424C28.0817 39.582 29.1515 40.3843 32.8668 42.2565C38.2148 39.3018 49.2427 31.3981 50.5704 23.4206C52.2302 13.4487 45.0687 11.2327 40.0589 11.2327Z" fill="black"/>
<path d="M25.4073 37.4424C25.9296 38.2952 25.9299 38.2949 25.9303 38.2947L25.9313 38.2941L25.9341 38.2924L25.9425 38.2872L25.9706 38.2696C25.9944 38.2546 26.028 38.2333 26.0708 38.2056C26.1563 38.1502 26.2786 38.0694 26.4322 37.9638C26.7393 37.7525 27.1724 37.4413 27.688 37.0343C28.7177 36.2214 30.0848 35.0198 31.4361 33.4618C34.1265 30.3597 36.8223 25.761 36.532 19.9642C36.5175 13.6722 31.2613 8.62793 24.8449 8.62793C18.4196 8.62793 13.1577 13.6861 13.1577 19.9902V20.0031L13.158 20.0159C13.3089 25.8702 16.2915 30.4559 19.1571 33.5351C20.595 35.0801 22.0216 36.2663 23.0896 37.0671C23.6244 37.4681 24.0711 37.7739 24.3871 37.9811C24.5451 38.0848 24.6706 38.164 24.7582 38.2181C24.802 38.2452 24.8363 38.266 24.8605 38.2806L24.8892 38.2977L24.8977 38.3027L24.9004 38.3044L24.9014 38.3049C24.9018 38.3052 24.9022 38.3054 25.4073 37.4424ZM25.4073 37.4424L24.9022 38.3054L25.4189 38.6079L25.9296 38.2952L25.4073 37.4424Z" fill="black" stroke="white" stroke-width="2"/>
<ellipse cx="25.6749" cy="4.54659" rx="4.27914" ry="4.54659" fill="black"/>
<ellipse cx="10.1629" cy="4.54659" rx="4.27914" ry="4.54659" fill="black"/>
<ellipse cx="40.1168" cy="4.54659" rx="4.27914" ry="4.54659" fill="black"/>
</svg>
