<svg width="319" height="107" viewBox="0 0 319 107" fill="none" xmlns="http://www.w3.org/2000/svg">
<path d="M155.793 16.3093H170.673L180.909 41.2537H181.425L191.661 16.3093H206.542V60.3491H194.844V34.8886H194.5L184.694 60.0051H177.641L167.835 34.7166H167.491V60.3491H155.793V16.3093ZM224.164 16.3093V60.3491H212.208V16.3093H224.164ZM229.83 60.3491V16.3093H261.57V25.943H241.786V33.5124H259.936V43.1461H241.786V50.7154H261.484V60.3491H229.83ZM291.24 30.0718C291.125 28.6382 290.588 27.52 289.627 26.7172C288.681 25.9144 287.24 25.513 285.305 25.513C284.072 25.513 283.061 25.6635 282.273 25.9645C281.499 26.2513 280.925 26.6455 280.552 27.1472C280.18 27.649 279.986 28.2224 279.972 28.8676C279.943 29.398 280.036 29.8782 280.251 30.3083C280.481 30.724 280.839 31.1039 281.327 31.448C281.814 31.7777 282.438 32.0788 283.197 32.3512C283.957 32.6235 284.86 32.8673 285.907 33.0823L289.52 33.8564C291.957 34.3725 294.043 35.0535 295.777 35.8993C297.512 36.7451 298.931 37.7415 300.035 38.8883C301.139 40.0209 301.949 41.2968 302.465 42.716C302.995 44.1353 303.268 45.6835 303.282 47.3608C303.268 50.2567 302.544 52.7081 301.11 54.7151C299.677 56.7221 297.626 58.2489 294.96 59.2954C292.308 60.342 289.118 60.8652 285.391 60.8652C281.563 60.8652 278.223 60.2989 275.37 59.1664C272.532 58.0339 270.324 56.2921 268.747 53.941C267.184 51.5756 266.396 48.5507 266.381 44.8664H277.735C277.807 46.214 278.144 47.3465 278.746 48.264C279.348 49.1815 280.194 49.8768 281.284 50.3499C282.387 50.8229 283.699 51.0595 285.219 51.0595C286.495 51.0595 287.563 50.9018 288.423 50.5864C289.283 50.271 289.935 49.8338 290.38 49.2747C290.824 48.7156 291.053 48.0776 291.068 47.3608C291.053 46.687 290.831 46.0993 290.401 45.5975C289.985 45.0814 289.297 44.6227 288.337 44.2213C287.376 43.8055 286.079 43.4185 284.445 43.0601L280.058 42.1139C276.159 41.2681 273.083 39.856 270.833 37.8776C268.596 35.885 267.485 33.1683 267.5 29.7277C267.485 26.9322 268.231 24.4879 269.736 22.3949C271.256 20.2875 273.356 18.6461 276.037 17.4705C278.732 16.295 281.821 15.7072 285.305 15.7072C288.86 15.7072 291.935 16.3022 294.53 17.492C297.125 18.6819 299.125 20.3592 300.53 22.5239C301.949 24.6743 302.666 27.1903 302.68 30.0718H291.24Z" fill="white"/>
<path d="M153.484 77.0122H155.168L158.097 84.1639H158.205L161.134 77.0122H162.819V86.2124H161.498V79.5549H161.413L158.699 86.1989H157.603L154.89 79.5504H154.804V86.2124H153.484V77.0122ZM166.225 77.0122V86.2124H164.837V77.0122H166.225ZM175.672 77.0122V86.2124H174.396L169.72 79.465H169.635V86.2124H168.246V77.0122H169.531L174.212 83.7686H174.297V77.0122H175.672ZM179.085 77.0122V86.2124H177.697V77.0122H179.085ZM186.125 79.4291C186.077 79.0038 185.879 78.6744 185.532 78.4408C185.184 78.2042 184.747 78.0859 184.22 78.0859C183.842 78.0859 183.516 78.1458 183.24 78.2656C182.965 78.3824 182.751 78.5441 182.598 78.7507C182.448 78.9544 182.373 79.1865 182.373 79.447C182.373 79.6657 182.424 79.8543 182.526 80.0131C182.631 80.1718 182.767 80.3051 182.935 80.4129C183.106 80.5177 183.288 80.606 183.483 80.6779C183.678 80.7468 183.865 80.8037 184.045 80.8486L184.943 81.0822C185.237 81.1541 185.538 81.2514 185.846 81.3742C186.154 81.497 186.44 81.6587 186.704 81.8594C186.968 82.06 187.18 82.3086 187.342 82.6051C187.507 82.9016 187.589 83.2565 187.589 83.6698C187.589 84.1909 187.454 84.6536 187.185 85.0579C186.918 85.4622 186.53 85.7811 186.021 86.0147C185.515 86.2483 184.903 86.3651 184.184 86.3651C183.495 86.3651 182.899 86.2558 182.396 86.0372C181.893 85.8186 181.499 85.5086 181.214 85.1073C180.93 84.703 180.773 84.2238 180.743 83.6698H182.135C182.162 84.0022 182.27 84.2792 182.459 84.5008C182.65 84.7195 182.895 84.8827 183.191 84.9905C183.491 85.0953 183.818 85.1477 184.175 85.1477C184.567 85.1477 184.916 85.0863 185.222 84.9636C185.53 84.8378 185.773 84.6641 185.949 84.4424C186.126 84.2178 186.214 83.9558 186.214 83.6563C186.214 83.3838 186.136 83.1607 185.981 82.987C185.828 82.8132 185.62 82.6695 185.356 82.5557C185.096 82.4419 184.801 82.3416 184.471 82.2547L183.384 81.9582C182.647 81.7576 182.064 81.4626 181.632 81.0732C181.204 80.6839 180.99 80.1688 180.99 79.5279C180.99 78.9978 181.134 78.5351 181.421 78.1398C181.709 77.7445 182.098 77.4375 182.589 77.2189C183.08 76.9973 183.634 76.8864 184.251 76.8864C184.874 76.8864 185.424 76.9958 185.9 77.2144C186.379 77.433 186.756 77.734 187.032 78.1173C187.307 78.4977 187.451 78.9349 187.463 79.4291H186.125ZM188.794 78.2072V77.0122H195.914V78.2072H193.044V86.2124H191.66V78.2072H188.794ZM197.488 86.2124V77.0122H203.256V78.2072H198.876V81.0104H202.955V82.2008H198.876V85.0175H203.31V86.2124H197.488ZM205.11 86.2124V77.0122H208.389C209.102 77.0122 209.694 77.135 210.164 77.3806C210.637 77.6262 210.99 77.9661 211.224 78.4003C211.458 78.8316 211.574 79.3302 211.574 79.8963C211.574 80.4593 211.456 80.9549 211.219 81.3832C210.986 81.8085 210.632 82.1394 210.159 82.376C209.689 82.6126 209.098 82.7309 208.385 82.7309H205.901V81.5359H208.259C208.708 81.5359 209.074 81.4716 209.355 81.3428C209.64 81.214 209.848 81.0268 209.98 80.7812C210.111 80.5357 210.177 80.2407 210.177 79.8963C210.177 79.5489 210.11 79.2479 209.975 78.9933C209.843 78.7388 209.635 78.5441 209.351 78.4093C209.069 78.2716 208.699 78.2027 208.241 78.2027H206.498V86.2124H205.11ZM209.652 82.0615L211.925 86.2124H210.343L208.115 82.0615H209.652ZM214.652 77.0122V86.2124H213.263V77.0122H214.652ZM224.665 81.6123C224.665 82.5946 224.485 83.4392 224.126 84.146C223.766 84.8497 223.274 85.3918 222.648 85.7722C222.025 86.1495 221.317 86.3382 220.523 86.3382C219.726 86.3382 219.015 86.1495 218.389 85.7722C217.766 85.3918 217.275 84.8482 216.916 84.1415C216.556 83.4347 216.377 82.5916 216.377 81.6123C216.377 80.63 216.556 79.787 216.916 79.0832C217.275 78.3764 217.766 77.8343 218.389 77.457C219.015 77.0766 219.726 76.8864 220.523 76.8864C221.317 76.8864 222.025 77.0766 222.648 77.457C223.274 77.8343 223.766 78.3764 224.126 79.0832C224.485 79.787 224.665 80.63 224.665 81.6123ZM223.29 81.6123C223.29 80.8636 223.169 80.2332 222.926 79.7211C222.687 79.206 222.357 78.8166 221.938 78.5531C221.522 78.2865 221.05 78.1533 220.523 78.1533C219.993 78.1533 219.52 78.2865 219.103 78.5531C218.687 78.8166 218.358 79.206 218.115 79.7211C217.876 80.2332 217.756 80.8636 217.756 81.6123C217.756 82.361 217.876 82.9929 218.115 83.5081C218.358 84.0202 218.687 84.4095 219.103 84.676C219.52 84.9396 219.993 85.0714 220.523 85.0714C221.05 85.0714 221.522 84.9396 221.938 84.676C222.357 84.4095 222.687 84.0202 222.926 83.5081C223.169 82.9929 223.29 82.361 223.29 81.6123ZM232.722 86.2124H229.743V77.0122H232.816C233.718 77.0122 234.492 77.1964 235.139 77.5648C235.785 77.9301 236.281 78.4557 236.626 79.1416C236.973 79.8244 237.147 80.6435 237.147 81.5988C237.147 82.5572 236.971 83.3808 236.621 84.0696C236.274 84.7584 235.77 85.2885 235.112 85.6599C234.453 86.0282 233.656 86.2124 232.722 86.2124ZM231.131 84.9995H232.645C233.346 84.9995 233.929 84.8677 234.393 84.6042C234.857 84.3376 235.204 83.9528 235.435 83.4497C235.666 82.9435 235.781 82.3266 235.781 81.5988C235.781 80.8771 235.666 80.2646 235.435 79.7615C235.207 79.2584 234.868 78.8765 234.415 78.616C233.963 78.3554 233.402 78.2251 232.731 78.2251H231.131V84.9995ZM238.873 86.2124V77.0122H244.641V78.2072H240.261V81.0104H244.34V82.2008H240.261V85.0175H244.695V86.2124H238.873ZM251.231 77.0122V86.2124H249.843V77.0122H251.231ZM260.678 77.0122V86.2124H259.402L254.726 79.465H254.641V86.2124H253.253V77.0122H254.537L259.218 83.7686H259.304V77.0122H260.678ZM270.345 80.0041H268.943C268.889 79.7046 268.789 79.441 268.642 79.2134C268.495 78.9858 268.316 78.7927 268.103 78.6339C267.89 78.4752 267.652 78.3554 267.389 78.2746C267.128 78.1937 266.851 78.1533 266.558 78.1533C266.027 78.1533 265.553 78.2865 265.133 78.5531C264.717 78.8196 264.388 79.2104 264.145 79.7256C263.906 80.2407 263.786 80.8696 263.786 81.6123C263.786 82.361 263.906 82.9929 264.145 83.5081C264.388 84.0232 264.719 84.4125 265.138 84.676C265.557 84.9396 266.029 85.0714 266.553 85.0714C266.844 85.0714 267.119 85.0324 267.38 84.9546C267.643 84.8737 267.881 84.7554 268.094 84.5997C268.307 84.4439 268.486 84.2538 268.633 84.0292C268.783 83.8015 268.886 83.541 268.943 83.2475L270.345 83.252C270.27 83.7042 270.124 84.1205 269.909 84.5008C269.696 84.8782 269.422 85.2046 269.087 85.4802C268.754 85.7527 268.374 85.9638 267.946 86.1136C267.517 86.2633 267.05 86.3382 266.544 86.3382C265.747 86.3382 265.038 86.1495 264.415 85.7722C263.792 85.3918 263.301 84.8482 262.941 84.1415C262.585 83.4347 262.407 82.5916 262.407 81.6123C262.407 80.63 262.586 79.787 262.946 79.0832C263.305 78.3764 263.796 77.8343 264.419 77.457C265.042 77.0766 265.75 76.8864 266.544 76.8864C267.032 76.8864 267.487 76.9568 267.91 77.0976C268.335 77.2353 268.717 77.439 269.055 77.7085C269.394 77.9751 269.674 78.3015 269.895 78.6878C270.117 79.0712 270.267 79.5099 270.345 80.0041ZM272.006 86.2124V77.0122H273.394V85.0175H277.562V86.2124H272.006ZM285.062 77.0122H286.455V83.0633C286.455 83.7072 286.304 84.2777 286.001 84.7749C285.699 85.269 285.273 85.6584 284.725 85.9429C284.177 86.2244 283.535 86.3651 282.798 86.3651C282.064 86.3651 281.424 86.2244 280.876 85.9429C280.327 85.6584 279.902 85.269 279.6 84.7749C279.297 84.2777 279.146 83.7072 279.146 83.0633V77.0122H280.534V82.951C280.534 83.3673 280.625 83.7372 280.808 84.0606C280.994 84.384 281.256 84.6386 281.594 84.8243C281.933 85.007 282.334 85.0983 282.798 85.0983C283.265 85.0983 283.668 85.007 284.007 84.8243C284.348 84.6386 284.609 84.384 284.788 84.0606C284.971 83.7372 285.062 83.3673 285.062 82.951V77.0122ZM293.491 79.4291C293.443 79.0038 293.245 78.6744 292.898 78.4408C292.551 78.2042 292.113 78.0859 291.586 78.0859C291.209 78.0859 290.882 78.1458 290.607 78.2656C290.331 78.3824 290.117 78.5441 289.965 78.7507C289.815 78.9544 289.74 79.1865 289.74 79.447C289.74 79.6657 289.791 79.8543 289.893 80.0131C289.997 80.1718 290.134 80.3051 290.301 80.4129C290.472 80.5177 290.655 80.606 290.85 80.6779C291.044 80.7468 291.231 80.8037 291.411 80.8486L292.31 81.0822C292.603 81.1541 292.904 81.2514 293.212 81.3742C293.521 81.497 293.807 81.6587 294.07 81.8594C294.334 82.06 294.547 82.3086 294.708 82.6051C294.873 82.9016 294.955 83.2565 294.955 83.6698C294.955 84.1909 294.821 84.6536 294.551 85.0579C294.285 85.4622 293.897 85.7811 293.388 86.0147C292.882 86.2483 292.269 86.3651 291.55 86.3651C290.861 86.3651 290.266 86.2558 289.762 86.0372C289.259 85.8186 288.865 85.5086 288.581 85.1073C288.296 84.703 288.139 84.2238 288.109 83.6698H289.502C289.529 84.0022 289.637 84.2792 289.825 84.5008C290.017 84.7195 290.261 84.8827 290.558 84.9905C290.857 85.0953 291.185 85.1477 291.541 85.1477C291.934 85.1477 292.283 85.0863 292.588 84.9636C292.896 84.8378 293.139 84.6641 293.316 84.4424C293.492 84.2178 293.581 83.9558 293.581 83.6563C293.581 83.3838 293.503 83.1607 293.347 82.987C293.194 82.8132 292.986 82.6695 292.723 82.5557C292.462 82.4419 292.167 82.3416 291.838 82.2547L290.751 81.9582C290.014 81.7576 289.43 81.4626 288.999 81.0732C288.57 80.6839 288.356 80.1688 288.356 79.5279C288.356 78.9978 288.5 78.5351 288.788 78.1398C289.075 77.7445 289.464 77.4375 289.956 77.2189C290.447 76.9973 291.001 76.8864 291.618 76.8864C292.241 76.8864 292.79 76.9958 293.266 77.2144C293.746 77.433 294.123 77.734 294.398 78.1173C294.674 78.4977 294.818 78.9349 294.83 79.4291H293.491ZM298.002 77.0122V86.2124H296.614V77.0122H298.002ZM308.016 81.6123C308.016 82.5946 307.836 83.4392 307.477 84.146C307.117 84.8497 306.625 85.3918 305.999 85.7722C305.376 86.1495 304.667 86.3382 303.874 86.3382C303.077 86.3382 302.366 86.1495 301.74 85.7722C301.117 85.3918 300.626 84.8482 300.266 84.1415C299.907 83.4347 299.727 82.5916 299.727 81.6123C299.727 80.63 299.907 79.787 300.266 79.0832C300.626 78.3764 301.117 77.8343 301.74 77.457C302.366 77.0766 303.077 76.8864 303.874 76.8864C304.667 76.8864 305.376 77.0766 305.999 77.457C306.625 77.8343 307.117 78.3764 307.477 79.0832C307.836 79.787 308.016 80.63 308.016 81.6123ZM306.641 81.6123C306.641 80.8636 306.52 80.2332 306.277 79.7211C306.038 79.206 305.708 78.8166 305.289 78.5531C304.873 78.2865 304.401 78.1533 303.874 78.1533C303.344 78.1533 302.87 78.2865 302.454 78.5531C302.038 78.8166 301.708 79.206 301.466 79.7211C301.226 80.2332 301.106 80.8636 301.106 81.6123C301.106 82.361 301.226 82.9929 301.466 83.5081C301.708 84.0202 302.038 84.4095 302.454 84.676C302.87 84.9396 303.344 85.0714 303.874 85.0714C304.401 85.0714 304.873 84.9396 305.289 84.676C305.708 84.4095 306.038 84.0202 306.277 83.5081C306.52 82.9929 306.641 82.361 306.641 81.6123ZM303.317 76.0913L304.368 74.0204H305.783L304.39 76.0913H303.317ZM317.172 77.0122V86.2124H315.896L311.22 79.465H311.134V86.2124H309.746V77.0122H311.031L315.712 83.7686H315.797V77.0122H317.172ZM153.484 101.212V92.0122H159.252V93.2072H154.872V96.0104H158.951V97.2008H154.872V100.017H159.306V101.212H153.484ZM168.747 95.0041H167.346C167.292 94.7046 167.191 94.441 167.045 94.2134C166.898 93.9858 166.718 93.7927 166.506 93.6339C166.293 93.4752 166.055 93.3554 165.791 93.2746C165.531 93.1937 165.254 93.1533 164.96 93.1533C164.43 93.1533 163.956 93.2865 163.536 93.5531C163.12 93.8196 162.791 94.2104 162.548 94.7256C162.308 95.2407 162.189 95.8696 162.189 96.6123C162.189 97.361 162.308 97.9929 162.548 98.5081C162.791 99.0232 163.121 99.4125 163.541 99.676C163.96 99.9396 164.432 100.071 164.956 100.071C165.246 100.071 165.522 100.032 165.782 99.9546C166.046 99.8737 166.284 99.7554 166.497 99.5997C166.709 99.4439 166.889 99.2538 167.036 99.0292C167.185 98.8015 167.289 98.541 167.346 98.2475L168.747 98.252C168.672 98.7042 168.527 99.1205 168.312 99.5008C168.099 99.8782 167.825 100.205 167.489 100.48C167.157 100.753 166.777 100.964 166.348 101.114C165.92 101.263 165.453 101.338 164.947 101.338C164.15 101.338 163.44 101.15 162.817 100.772C162.195 100.392 161.703 99.8482 161.344 99.1415C160.988 98.4347 160.809 97.5916 160.809 96.6123C160.809 95.63 160.989 94.787 161.349 94.0832C161.708 93.3764 162.199 92.8343 162.822 92.457C163.445 92.0766 164.153 91.8864 164.947 91.8864C165.435 91.8864 165.89 91.9568 166.312 92.0976C166.738 92.2353 167.12 92.439 167.458 92.7085C167.796 92.9751 168.076 93.3015 168.298 93.6878C168.52 94.0712 168.669 94.5099 168.747 95.0041ZM178.4 96.6123C178.4 97.5946 178.22 98.4392 177.861 99.146C177.502 99.8497 177.009 100.392 176.383 100.772C175.76 101.15 175.052 101.338 174.258 101.338C173.462 101.338 172.75 101.15 172.124 100.772C171.501 100.392 171.01 99.8482 170.651 99.1415C170.292 98.4347 170.112 97.5916 170.112 96.6123C170.112 95.63 170.292 94.787 170.651 94.0832C171.01 93.3764 171.501 92.8343 172.124 92.457C172.75 92.0766 173.462 91.8864 174.258 91.8864C175.052 91.8864 175.76 92.0766 176.383 92.457C177.009 92.8343 177.502 93.3764 177.861 94.0832C178.22 94.787 178.4 95.63 178.4 96.6123ZM177.025 96.6123C177.025 95.8636 176.904 95.2332 176.662 94.7211C176.422 94.206 176.093 93.8166 175.673 93.5531C175.257 93.2865 174.785 93.1533 174.258 93.1533C173.728 93.1533 173.255 93.2865 172.839 93.5531C172.422 93.8166 172.093 94.206 171.85 94.7211C171.611 95.2332 171.491 95.8636 171.491 96.6123C171.491 97.361 171.611 97.9929 171.85 98.5081C172.093 99.0202 172.422 99.4095 172.839 99.676C173.255 99.9396 173.728 100.071 174.258 100.071C174.785 100.071 175.257 99.9396 175.673 99.676C176.093 99.4095 176.422 99.0202 176.662 98.5081C176.904 97.9929 177.025 97.361 177.025 96.6123ZM187.556 92.0122V101.212H186.281L181.604 94.465H181.519V101.212H180.131V92.0122H181.415L186.096 98.7686H186.182V92.0122H187.556ZM197.573 96.6123C197.573 97.5946 197.393 98.4392 197.034 99.146C196.675 99.8497 196.182 100.392 195.556 100.772C194.933 101.15 194.225 101.338 193.431 101.338C192.635 101.338 191.923 101.15 191.297 100.772C190.674 100.392 190.183 99.8482 189.824 99.1415C189.465 98.4347 189.285 97.5916 189.285 96.6123C189.285 95.63 189.465 94.787 189.824 94.0832C190.183 93.3764 190.674 92.8343 191.297 92.457C191.923 92.0766 192.635 91.8864 193.431 91.8864C194.225 91.8864 194.933 92.0766 195.556 92.457C196.182 92.8343 196.675 93.3764 197.034 94.0832C197.393 94.787 197.573 95.63 197.573 96.6123ZM196.198 96.6123C196.198 95.8636 196.077 95.2332 195.835 94.7211C195.595 94.206 195.266 93.8166 194.846 93.5531C194.43 93.2865 193.958 93.1533 193.431 93.1533C192.901 93.1533 192.428 93.2865 192.012 93.5531C191.595 93.8166 191.266 94.206 191.023 94.7211C190.784 95.2332 190.664 95.8636 190.664 96.6123C190.664 97.361 190.784 97.9929 191.023 98.5081C191.266 99.0202 191.595 99.4095 192.012 99.676C192.428 99.9396 192.901 100.071 193.431 100.071C193.958 100.071 194.43 99.9396 194.846 99.676C195.266 99.4095 195.595 99.0202 195.835 98.5081C196.077 97.9929 196.198 97.361 196.198 96.6123ZM192.874 91.0913L193.925 89.0204H195.34L193.948 91.0913H192.874ZM199.304 92.0122H200.988L203.917 99.1639H204.025L206.954 92.0122H208.639V101.212H207.318V94.5549H207.233L204.519 101.199H203.423L200.71 94.5504H200.624V101.212H199.304V92.0122ZM212.045 92.0122V101.212H210.657V92.0122H212.045ZM221.708 95.0041H220.306C220.252 94.7046 220.152 94.441 220.005 94.2134C219.858 93.9858 219.679 93.7927 219.466 93.6339C219.254 93.4752 219.015 93.3554 218.752 93.2746C218.491 93.1937 218.214 93.1533 217.921 93.1533C217.391 93.1533 216.916 93.2865 216.497 93.5531C216.08 93.8196 215.751 94.2104 215.508 94.7256C215.269 95.2407 215.149 95.8696 215.149 96.6123C215.149 97.361 215.269 97.9929 215.508 98.5081C215.751 99.0232 216.082 99.4125 216.501 99.676C216.921 99.9396 217.392 100.071 217.916 100.071C218.207 100.071 218.482 100.032 218.743 99.9546C219.006 99.8737 219.245 99.7554 219.457 99.5997C219.67 99.4439 219.85 99.2538 219.996 99.0292C220.146 98.8015 220.249 98.541 220.306 98.2475L221.708 98.252C221.633 98.7042 221.488 99.1205 221.272 99.5008C221.059 99.8782 220.785 100.205 220.45 100.48C220.118 100.753 219.737 100.964 219.309 101.114C218.881 101.263 218.413 101.338 217.907 101.338C217.111 101.338 216.401 101.15 215.778 100.772C215.155 100.392 214.664 99.8482 214.305 99.1415C213.948 98.4347 213.77 97.5916 213.77 96.6123C213.77 95.63 213.95 94.787 214.309 94.0832C214.668 93.3764 215.16 92.8343 215.783 92.457C216.405 92.0766 217.114 91.8864 217.907 91.8864C218.396 91.8864 218.851 91.9568 219.273 92.0976C219.698 92.2353 220.08 92.439 220.419 92.7085C220.757 92.9751 221.037 93.3015 221.259 93.6878C221.48 94.0712 221.63 94.5099 221.708 95.0041ZM224.084 101.212H222.611L225.922 92.0122H227.525L230.836 101.212H229.363L226.762 93.6834H226.69L224.084 101.212ZM224.331 97.6096H229.111V98.7776H224.331V97.6096ZM234.803 92.0122H236.38L238.783 96.1945H238.882L241.285 92.0122H242.862L239.524 97.6006V101.212H238.141V97.6006L234.803 92.0122ZM252.538 94.4291C252.49 94.0038 252.293 93.6744 251.945 93.4408C251.598 93.2042 251.161 93.0859 250.634 93.0859C250.256 93.0859 249.93 93.1458 249.654 93.2656C249.379 93.3824 249.165 93.5441 249.012 93.7507C248.862 93.9544 248.787 94.1865 248.787 94.447C248.787 94.6657 248.838 94.8543 248.94 95.0131C249.045 95.1718 249.181 95.3051 249.349 95.4129C249.519 95.5177 249.702 95.606 249.897 95.6779C250.091 95.7468 250.279 95.8037 250.458 95.8486L251.357 96.0822C251.65 96.1541 251.951 96.2514 252.26 96.3742C252.568 96.497 252.854 96.6587 253.118 96.8594C253.381 97.06 253.594 97.3086 253.756 97.6051C253.92 97.9016 254.003 98.2565 254.003 98.6698C254.003 99.1909 253.868 99.6536 253.598 100.058C253.332 100.462 252.944 100.781 252.435 101.015C251.929 101.248 251.316 101.365 250.598 101.365C249.909 101.365 249.313 101.256 248.81 101.037C248.307 100.819 247.913 100.509 247.628 100.107C247.344 99.703 247.186 99.2238 247.157 98.6698H248.549C248.576 99.0022 248.684 99.2792 248.873 99.5008C249.064 99.7195 249.308 99.8827 249.605 99.9905C249.904 100.095 250.232 100.148 250.589 100.148C250.981 100.148 251.33 100.086 251.635 99.9636C251.944 99.8378 252.186 99.6641 252.363 99.4424C252.54 99.2178 252.628 98.9558 252.628 98.6563C252.628 98.3838 252.55 98.1607 252.395 97.987C252.242 97.8132 252.034 97.6695 251.77 97.5557C251.51 97.4419 251.215 97.3416 250.885 97.2547L249.798 96.9582C249.061 96.7576 248.477 96.4626 248.046 96.0732C247.618 95.6839 247.404 95.1688 247.404 94.5279C247.404 93.9978 247.547 93.5351 247.835 93.1398C248.122 92.7445 248.512 92.4375 249.003 92.2189C249.494 91.9973 250.048 91.8864 250.665 91.8864C251.288 91.8864 251.837 91.9958 252.314 92.2144C252.793 92.433 253.17 92.734 253.446 93.1173C253.721 93.4977 253.865 93.9349 253.877 94.4291H252.538ZM263.653 96.6123C263.653 97.5946 263.474 98.4392 263.114 99.146C262.755 99.8497 262.262 100.392 261.636 100.772C261.013 101.15 260.305 101.338 259.511 101.338C258.715 101.338 258.004 101.15 257.378 100.772C256.755 100.392 256.263 99.8482 255.904 99.1415C255.545 98.4347 255.365 97.5916 255.365 96.6123C255.365 95.63 255.545 94.787 255.904 94.0832C256.263 93.3764 256.755 92.8343 257.378 92.457C258.004 92.0766 258.715 91.8864 259.511 91.8864C260.305 91.8864 261.013 92.0766 261.636 92.457C262.262 92.8343 262.755 93.3764 263.114 94.0832C263.474 94.787 263.653 95.63 263.653 96.6123ZM262.279 96.6123C262.279 95.8636 262.157 95.2332 261.915 94.7211C261.675 94.206 261.346 93.8166 260.926 93.5531C260.51 93.2865 260.039 93.1533 259.511 93.1533C258.981 93.1533 258.508 93.2865 258.092 93.5531C257.676 93.8166 257.346 94.206 257.104 94.7211C256.864 95.2332 256.744 95.8636 256.744 96.6123C256.744 97.361 256.864 97.9929 257.104 98.5081C257.346 99.0202 257.676 99.4095 258.092 99.676C258.508 99.9396 258.981 100.071 259.511 100.071C260.039 100.071 260.51 99.9396 260.926 99.676C261.346 99.4095 261.675 99.0202 261.915 98.5081C262.157 97.9929 262.279 97.361 262.279 96.6123ZM273.025 95.0041H271.624C271.57 94.7046 271.469 94.441 271.323 94.2134C271.176 93.9858 270.996 93.7927 270.784 93.6339C270.571 93.4752 270.333 93.3554 270.069 93.2746C269.809 93.1937 269.532 93.1533 269.238 93.1533C268.708 93.1533 268.234 93.2865 267.814 93.5531C267.398 93.8196 267.069 94.2104 266.826 94.7256C266.586 95.2407 266.467 95.8696 266.467 96.6123C266.467 97.361 266.586 97.9929 266.826 98.5081C267.069 99.0232 267.399 99.4125 267.819 99.676C268.238 99.9396 268.71 100.071 269.234 100.071C269.524 100.071 269.8 100.032 270.06 99.9546C270.324 99.8737 270.562 99.7554 270.775 99.5997C270.987 99.4439 271.167 99.2538 271.314 99.0292C271.463 98.8015 271.567 98.541 271.624 98.2475L273.025 98.252C272.95 98.7042 272.805 99.1205 272.59 99.5008C272.377 99.8782 272.103 100.205 271.767 100.48C271.435 100.753 271.055 100.964 270.626 101.114C270.198 101.263 269.731 101.338 269.225 101.338C268.428 101.338 267.718 101.15 267.095 100.772C266.473 100.392 265.981 99.8482 265.622 99.1415C265.266 98.4347 265.087 97.5916 265.087 96.6123C265.087 95.63 265.267 94.787 265.627 94.0832C265.986 93.3764 266.477 92.8343 267.1 92.457C267.723 92.0766 268.431 91.8864 269.225 91.8864C269.713 91.8864 270.168 91.9568 270.59 92.0976C271.016 92.2353 271.398 92.439 271.736 92.7085C272.074 92.9751 272.354 93.3015 272.576 93.6878C272.798 94.0712 272.947 94.5099 273.025 95.0041ZM276.074 92.0122V101.212H274.686V92.0122H276.074ZM278.873 101.212H277.4L280.71 92.0122H282.314L285.625 101.212H284.152L281.551 93.6834H281.479L278.873 101.212ZM279.12 97.6096H283.9V98.7776H279.12V97.6096ZM286.954 101.212V92.0122H288.342V100.017H292.511V101.212H286.954Z" fill="white"/>
<path d="M27.1325 28.3354C41.0883 28.3354 46.6708 33.9242 46.6708 33.9242C46.6708 33.9242 23.6202 66.5005 64.0926 94.452C56.6713 99.8493 52.6234 102.548 45.2753 106.596C31.7845 99.1425 3.96559 79.2047 0.616156 59.0806C-3.57064 33.9255 14.4948 28.3355 27.1325 28.3354Z" fill="white"/>
<path d="M101.053 28.3354C87.0967 28.3354 81.5143 33.9242 81.5143 33.9242C81.5143 33.9242 104.565 66.5005 64.0925 94.452C70.8391 99.8493 73.5377 101.873 82.9098 106.596C96.4006 99.1425 124.219 79.2047 127.569 59.0806C131.756 33.9255 113.69 28.3355 101.053 28.3354Z" fill="white"/>
<path d="M64.0926 94.4521C64.7972 95.6028 64.7978 95.6024 64.7984 95.6021L64.8002 95.601L64.8056 95.5976L64.8237 95.5864L64.8886 95.5458C64.9443 95.5108 65.0248 95.4596 65.1284 95.3926C65.3355 95.2585 65.6348 95.0607 66.0129 94.8007C66.7689 94.2806 67.8405 93.5108 69.1188 92.5017C71.6734 90.485 75.0648 87.504 78.4142 83.6421C85.0966 75.9371 91.7039 64.6129 90.9822 50.3924C90.9628 35.1878 78.2565 22.9383 62.6736 22.9383C47.0788 22.9383 34.365 35.2066 34.365 50.4273V50.4447L34.3655 50.4621C34.7358 64.8339 42.06 76.1406 49.1846 83.7963C52.7538 87.6315 56.2974 90.5779 58.9498 92.5668C60.277 93.5619 61.3837 94.3193 62.1625 94.8302C62.5519 95.0857 62.8596 95.2797 63.0721 95.4111C63.1783 95.4768 63.2608 95.5268 63.3178 95.5611L63.3841 95.6007L63.4025 95.6116L63.408 95.6148L63.4098 95.6159C63.4104 95.6162 63.4109 95.6166 64.0926 94.4521ZM64.0926 94.4521L63.4109 95.6166L64.1082 96.0247L64.7972 95.6028L64.0926 94.4521Z" fill="white" stroke="#A10028" stroke-width="2.69863"/>
<ellipse cx="64.7672" cy="11.4692" rx="10.7945" ry="11.4692" fill="white"/>
<ellipse cx="25.6368" cy="11.4692" rx="10.7945" ry="11.4692" fill="white"/>
<ellipse cx="101.199" cy="11.4692" rx="10.7945" ry="11.4692" fill="white"/>
</svg>
